<?xml version="1.0" encoding="UTF-8"?>
<svg width="32" height="32" viewBox="0 0 32 32" fill="none" xmlns="http://www.w3.org/2000/svg">
  <!-- Fundo com gradiente -->
  <rect width="32" height="32" rx="7" fill="url(#paint0_linear)"/>
  
  <!-- Ícone de braço musculoso simplificado -->
  <path d="M20.3 12.5C19.9 12.5 19.5 12.7 19.5 12.7L17.7 14.5C17.7 14.5 17.7 13.6 16.9 13.1M15.6 18.8H13.5V17.7C13.5 17.2 14 16.5 14.7 16.5M18 16.5C18.3 16.5 18.6 16.8 18.6 17.2C18.6 17.5 18.3 17.8 18 17.8C17.7 17.8 17.4 17.8 17.4 17.2C17.4 16.8 17.7 16.5 18 16.5ZM16.4 17.4C16.4 17.9 15.9 18.4 15.5 18.4C15 18.4 14.5 17.9 14.5 17.4C14.5 16.9 15 16.4 15.5 16.4C15.9 16.4 16.4 16.9 16.4 17.4Z" stroke="white" stroke-width="0.9" stroke-linecap="round" stroke-linejoin="round"/>
  
  <!-- Letra M estilizada -->
  <path d="M16 22C16 22 14 20 14 20L16 18L18 20L16 22Z" fill="#00E676"/>
  
  <!-- Definição do gradiente -->
  <defs>
    <linearGradient id="paint0_linear" x1="0" y1="0" x2="32" y2="32" gradientUnits="userSpaceOnUse">
      <stop offset="0%" stop-color="#1A1A1A"/>
      <stop offset="100%" stop-color="#00E676"/>
    </linearGradient>
  </defs>
</svg>
