<?xml version="1.0" encoding="UTF-8"?>
<svg width="1200" height="800" viewBox="0 0 1200 800" fill="none" xmlns="http://www.w3.org/2000/svg">
  <!-- Background gradient -->
  <rect width="1200" height="800" fill="url(#paint0_linear)" />
  
  <!-- Abstract shapes -->
  <circle cx="200" cy="150" r="80" fill="#F5F5F5" opacity="0.3" />
  <circle cx="1000" cy="650" r="120" fill="#F5F5F5" opacity="0.3" />
  <circle cx="900" cy="200" r="60" fill="#F5F5F5" opacity="0.2" />
  <circle cx="300" cy="600" r="100" fill="#F5F5F5" opacity="0.2" />
  
  <!-- Fitness icons (simplified) -->
  <!-- Dumbbell -->
  <g transform="translate(600, 400) scale(0.8)" opacity="0.15">
    <rect x="-200" y="-15" width="400" height="30" rx="15" fill="#343030" />
    <circle cx="-220" cy="0" r="40" stroke="#343030" stroke-width="20" fill="none" />
    <circle cx="220" cy="0" r="40" stroke="#343030" stroke-width="20" fill="none" />
  </g>
  
  <!-- Apple (nutrition symbol) -->
  <g transform="translate(300, 300) scale(0.6)" opacity="0.15">
    <path d="M0,-80 C-40,-80 -70,-40 -70,0 C-70,60 -20,120 0,160 C20,120 70,60 70,0 C70,-40 40,-80 0,-80 Z" fill="#343030" />
    <path d="M0,-100 C10,-120 30,-110 30,-130 C30,-150 10,-160 0,-160 C-10,-160 -30,-150 -30,-130 C-30,-110 -10,-120 0,-100 Z" fill="#343030" />
  </g>
  
  <!-- Water drop -->
  <g transform="translate(900, 400) scale(0.6)" opacity="0.15">
    <path d="M0,100 C60,100 100,60 100,0 C100,-80 0,-160 0,-160 C0,-160 -100,-80 -100,0 C-100,60 -60,100 0,100 Z" fill="#343030" />
  </g>
  
  <!-- Gradient definition -->
  <defs>
    <linearGradient id="paint0_linear" x1="0" y1="0" x2="1200" y2="800" gradientUnits="userSpaceOnUse">
      <stop offset="0" stop-color="#FFFFFF" />
      <stop offset="1" stop-color="#F0F0F0" />
    </linearGradient>
  </defs>
</svg>