<?xml version="1.0" encoding="UTF-8"?>
<svg width="2048" height="2732" viewBox="0 0 2048 2732" fill="none" xmlns="http://www.w3.org/2000/svg">
  <!-- Fundo -->
  <rect width="2048" height="2732" fill="#FFFFFF"/>
  
  <!-- Círculo de fundo decorativo -->
  <circle cx="1024" cy="1366" r="800" fill="#F5F5F5"/>
  
  <!-- Ícone central -->
  <g transform="translate(512, 866)">
    <!-- Círculo de fundo -->
    <circle cx="512" cy="512" r="512" fill="#343030"/>
    
    <!-- Prato -->
    <circle cx="512" cy="512" r="360" fill="#FFFFFF"/>
    <circle cx="512" cy="512" r="320" fill="#343030"/>
    
    <!-- Folhas de salada -->
    <path d="M512 192C512 192 400 320 400 512C400 704 512 832 512 832" stroke="#FFFFFF" stroke-width="48" stroke-linecap="round"/>
    <path d="M512 192C512 192 624 320 624 512C624 704 512 832 512 832" stroke="#FFFFFF" stroke-width="48" stroke-linecap="round"/>
    
    <!-- Tomate -->
    <circle cx="512" cy="512" r="80" fill="#FF6B6B"/>
    
    <!-- Folhas decorativas -->
    <path d="M512 192C512 192 440 240 440 320" stroke="#FFFFFF" stroke-width="32" stroke-linecap="round"/>
    <path d="M512 192C512 192 584 240 584 320" stroke="#FFFFFF" stroke-width="32" stroke-linecap="round"/>
  </g>
  
  <!-- Texto -->
  <text x="1024" y="1900" text-anchor="middle" font-family="Arial, sans-serif" font-size="72" fill="#343030" font-weight="bold">
    Diet &amp; Workout Tracker
  </text>
  <text x="1024" y="2000" text-anchor="middle" font-family="Arial, sans-serif" font-size="36" fill="#666666">
    Acompanhe sua jornada de saúde
  </text>
</svg> 